<svg width="18" height="22" viewBox="0 0 18 22" fill="none" xmlns="http://www.w3.org/2000/svg">
<path fill-rule="evenodd" clip-rule="evenodd" d="M13.086 8.04302C13.086 10.8282 10.8282 13.086 8.04302 13.086C5.25784 13.086 3 10.8282 3 8.04302C3 5.25784 5.25784 3 8.04302 3C10.8282 3 13.086 5.25784 13.086 8.04302ZM10.7007 14.5674C9.88059 14.9018 8.98332 15.086 8.04302 15.086C4.15327 15.086 1 11.9328 1 8.04302C1 4.15327 4.15327 1 8.04302 1C11.9328 1 15.086 4.15327 15.086 8.04302C15.086 10.2729 14.0498 12.2607 12.4326 13.5511L16.9836 19.9225C17.3046 20.372 17.2005 20.9965 16.7511 21.3175C16.3017 21.6385 15.6771 21.5344 15.3561 21.085L10.7007 14.5674Z" fill="#FF3434"/>
<path d="M10.7007 14.5674L10.9041 14.4221L10.7893 14.2613L10.6063 14.3359L10.7007 14.5674ZM12.4326 13.5511L12.2767 13.3557L12.0914 13.5036L12.2292 13.6965L12.4326 13.5511ZM16.9836 19.9225L16.7802 20.0679L16.9836 19.9225ZM16.7511 21.3175L16.6058 21.1141L16.7511 21.3175ZM15.3561 21.085L15.1527 21.2303L15.3561 21.085ZM8.04302 13.336C10.9663 13.336 13.336 10.9663 13.336 8.04302H12.836C12.836 10.6901 10.6901 12.836 8.04302 12.836V13.336ZM2.75 8.04302C2.75 10.9663 5.11977 13.336 8.04302 13.336V12.836C5.39591 12.836 3.25 10.6901 3.25 8.04302H2.75ZM8.04302 2.75C5.11977 2.75 2.75 5.11977 2.75 8.04302H3.25C3.25 5.39591 5.39591 3.25 8.04302 3.25V2.75ZM13.336 8.04302C13.336 5.11977 10.9663 2.75 8.04302 2.75V3.25C10.6901 3.25 12.836 5.39591 12.836 8.04302H13.336ZM8.04302 15.336C9.01624 15.336 9.94553 15.1453 10.7951 14.7989L10.6063 14.3359C9.81565 14.6583 8.95041 14.836 8.04302 14.836V15.336ZM0.75 8.04302C0.75 12.0708 4.0152 15.336 8.04302 15.336V14.836C4.29134 14.836 1.25 11.7947 1.25 8.04302H0.75ZM8.04302 0.75C4.0152 0.75 0.75 4.0152 0.75 8.04302H1.25C1.25 4.29134 4.29134 1.25 8.04302 1.25V0.75ZM15.336 8.04302C15.336 4.0152 12.0708 0.75 8.04302 0.75V1.25C11.7947 1.25 14.836 4.29134 14.836 8.04302H15.336ZM12.5885 13.7466C14.2626 12.4107 15.336 10.3521 15.336 8.04302H14.836C14.836 10.1936 13.837 12.1106 12.2767 13.3557L12.5885 13.7466ZM12.2292 13.6965L16.7802 20.0679L17.187 19.7772L12.636 13.4058L12.2292 13.6965ZM16.7802 20.0679C17.0209 20.4049 16.9429 20.8733 16.6058 21.1141L16.8964 21.521C17.4582 21.1197 17.5883 20.339 17.187 19.7772L16.7802 20.0679ZM16.6058 21.1141C16.2687 21.3548 15.8003 21.2768 15.5596 20.9397L15.1527 21.2303C15.554 21.7921 16.3347 21.9222 16.8964 21.521L16.6058 21.1141ZM15.5596 20.9397L10.9041 14.4221L10.4972 14.7127L15.1527 21.2303L15.5596 20.9397Z" fill="#FF3434"/>
</svg>
