<svg width="27" height="25" viewBox="0 0 27 25" fill="none" xmlns="http://www.w3.org/2000/svg">
<g clip-path="url(#clip0_1202_1208)">
<path d="M18.2846 24.8601L11.4664 15.4435L2.83321 24.8601H0.315186L10.3455 13.8957L0.384388 0.139648H7.94463L14.6203 9.2223L22.9301 0.139648H25.4975L15.755 10.7659L26.1148 24.8601H18.2846ZM22.5361 22.9839L7.20601 2.13884H4.05488L19.2658 22.9846H22.5355L22.5361 22.9839Z" fill="black"/>
<mask id="path-2-inside-1_1202_1208" fill="white">
<path d="M25.1823 0.279509L15.5775 10.7562L25.8414 24.7205H18.3545L11.4794 15.2256L2.77428 24.7205H0.630362L10.5236 13.9063L0.656399 0.279509H7.87679L14.61 9.43972L22.9897 0.279509H25.1823ZM19.1973 23.1238H22.8102L7.27452 1.99919H3.78217L19.1973 23.1238ZM25.8133 0H22.8705L22.789 0.0887442L14.6319 9.00509L8.09605 0.111804L8.01382 0H0.113054L0.435772 0.445817L10.168 13.886L0.430291 24.5297L0 25H2.89282L2.97435 24.9113L11.4541 15.6616L18.1339 24.8861L18.2161 24.9993H26.3896L26.0607 24.5521L15.9345 10.7751L25.3824 0.470274L25.8133 0ZM4.32757 2.2787H7.13748L22.2621 22.845H19.335L4.32757 2.2787Z"/>
</mask>
<path d="M25.1823 0.279509L15.5775 10.7562L25.8414 24.7205H18.3545L11.4794 15.2256L2.77428 24.7205H0.630362L10.5236 13.9063L0.656399 0.279509H7.87679L14.61 9.43972L22.9897 0.279509H25.1823ZM19.1973 23.1238H22.8102L7.27452 1.99919H3.78217L19.1973 23.1238ZM25.8133 0H22.8705L22.789 0.0887442L14.6319 9.00509L8.09605 0.111804L8.01382 0H0.113054L0.435772 0.445817L10.168 13.886L0.430291 24.5297L0 25H2.89282L2.97435 24.9113L11.4541 15.6616L18.1339 24.8861L18.2161 24.9993H26.3896L26.0607 24.5521L15.9345 10.7751L25.3824 0.470274L25.8133 0ZM4.32757 2.2787H7.13748L22.2621 22.845H19.335L4.32757 2.2787Z" fill="black"/>
<path d="M25.1823 0.279509L25.9194 0.955278L27.4557 -0.720491H25.1823V0.279509ZM15.5775 10.7562L14.8404 10.0804L14.285 10.6862L14.7717 11.3485L15.5775 10.7562ZM25.8414 24.7205V25.7205H27.8175L26.6472 24.1282L25.8414 24.7205ZM18.3545 24.7205L17.5445 25.307L17.844 25.7205H18.3545V24.7205ZM11.4794 15.2256L12.2894 14.6391L11.5706 13.6464L10.7423 14.5498L11.4794 15.2256ZM2.77428 24.7205V25.7205H3.21413L3.51138 25.3963L2.77428 24.7205ZM0.630362 24.7205L-0.107463 24.0455L-1.63981 25.7205H0.630362V24.7205ZM10.5236 13.9063L11.2615 14.5813L11.8116 13.9799L11.3336 13.3198L10.5236 13.9063ZM0.656399 0.279509V-0.720491H-1.30234L-0.153555 0.866002L0.656399 0.279509ZM7.87679 0.279509L8.68253 -0.312754L8.38283 -0.720491H7.87679V0.279509ZM14.61 9.43972L13.8043 10.032L14.5257 11.0134L15.3479 10.1147L14.61 9.43972ZM22.9897 0.279509V-0.720491H22.5492L22.2519 -0.395464L22.9897 0.279509ZM19.1973 23.1238L18.3895 23.7133L18.6891 24.1238H19.1973V23.1238ZM22.8102 23.1238V24.1238H24.787L23.6158 22.5313L22.8102 23.1238ZM7.27452 1.99919L8.08012 1.40673L7.7804 0.99919H7.27452V1.99919ZM3.78217 1.99919V0.99919H1.81451L2.97438 2.58865L3.78217 1.99919ZM25.8133 0L26.5506 0.67563L28.0862 -1H25.8133V0ZM22.8705 0V-1H22.4313L22.1341 -0.67657L22.8705 0ZM22.789 0.0887442L22.0526 -0.587828L22.0511 -0.586248L22.789 0.0887442ZM14.6319 9.00509L13.8262 9.59728L14.5475 10.5789L15.3698 9.68008L14.6319 9.00509ZM8.09605 0.111804L8.90184 -0.480394L8.90165 -0.480646L8.09605 0.111804ZM8.01382 0L8.81943 -0.59245L8.51972 -1H8.01382V0ZM0.113054 0V-1H-1.84533L-0.696987 0.586373L0.113054 0ZM0.435772 0.445817L-0.374269 1.03219L-0.374179 1.03231L0.435772 0.445817ZM10.168 13.886L10.9058 14.561L11.456 13.9597L10.978 13.2995L10.168 13.886ZM0.430291 24.5297L1.16806 25.2048L1.1681 25.2047L0.430291 24.5297ZM0 25L-0.737773 24.325L-2.27041 26H0V25ZM2.89282 25V26H3.33203L3.62919 25.6766L2.89282 25ZM2.97435 24.9113L3.71072 25.5878L3.71147 25.587L2.97435 24.9113ZM11.4541 15.6616L12.264 15.0751L11.5452 14.0824L10.717 14.9858L11.4541 15.6616ZM18.1339 24.8861L17.3239 25.4726L17.3248 25.4738L18.1339 24.8861ZM18.2161 24.9993L17.407 25.587L17.7065 25.9993H18.2161V24.9993ZM26.3896 24.9993V25.9993H28.3663L27.1952 24.4069L26.3896 24.9993ZM26.0607 24.5521L25.2549 25.1443L25.2551 25.1445L26.0607 24.5521ZM15.9345 10.7751L15.1974 10.0993L14.642 10.7051L15.1287 11.3673L15.9345 10.7751ZM25.3824 0.470274L26.1195 1.14607L26.1196 1.1459L25.3824 0.470274ZM4.32757 2.2787V1.2787H2.35993L3.51978 2.86816L4.32757 2.2787ZM7.13748 2.2787L7.94309 1.68625L7.64338 1.2787H7.13748V2.2787ZM22.2621 22.845V23.845H24.2388L23.0677 22.2525L22.2621 22.845ZM19.335 22.845L18.5272 23.4344L18.8268 23.845H19.335V22.845ZM24.4452 -0.39626L14.8404 10.0804L16.3146 11.432L25.9194 0.955278L24.4452 -0.39626ZM14.7717 11.3485L25.0357 25.3127L26.6472 24.1282L16.3832 10.164L14.7717 11.3485ZM25.8414 23.7205H18.3545V25.7205H25.8414V23.7205ZM19.1645 24.134L12.2894 14.6391L10.6695 15.812L17.5445 25.307L19.1645 24.134ZM10.7423 14.5498L2.03718 24.0447L3.51138 25.3963L12.2165 15.9014L10.7423 14.5498ZM2.77428 23.7205H0.630362V25.7205H2.77428V23.7205ZM1.36819 25.3955L11.2615 14.5813L9.7858 13.2313L-0.107463 24.0455L1.36819 25.3955ZM11.3336 13.3198L1.46635 -0.306984L-0.153555 0.866002L9.71367 14.4928L11.3336 13.3198ZM0.656399 1.27951H7.87679V-0.720491H0.656399V1.27951ZM7.07104 0.871773L13.8043 10.032L15.4158 8.84746L8.68253 -0.312754L7.07104 0.871773ZM15.3479 10.1147L23.7276 0.954483L22.2519 -0.395464L13.8722 8.76475L15.3479 10.1147ZM22.9897 1.27951H25.1823V-0.720491H22.9897V1.27951ZM19.1973 24.1238H22.8102V22.1238H19.1973V24.1238ZM23.6158 22.5313L8.08012 1.40673L6.46892 2.59165L22.0046 23.7163L23.6158 22.5313ZM7.27452 0.99919H3.78217V2.99919H7.27452V0.99919ZM2.97438 2.58865L18.3895 23.7133L20.0051 22.5343L4.58997 1.40972L2.97438 2.58865ZM25.8133 -1H22.8705V1H25.8133V-1ZM22.1341 -0.67657L22.0526 -0.587826L23.5253 0.765315L23.6069 0.67657L22.1341 -0.67657ZM22.0511 -0.586248L13.8941 8.33009L15.3698 9.68008L23.5268 0.763736L22.0511 -0.586248ZM15.4377 8.41289L8.90184 -0.480394L7.29025 0.704001L13.8262 9.59728L15.4377 8.41289ZM8.90165 -0.480646L8.81943 -0.59245L7.20822 0.59245L7.29044 0.704254L8.90165 -0.480646ZM8.01382 -1H0.113054V1H8.01382V-1ZM-0.696987 0.586373L-0.374269 1.03219L1.24581 -0.140556L0.923095 -0.586373L-0.696987 0.586373ZM-0.374179 1.03231L9.35807 14.4725L10.978 13.2995L1.24572 -0.14068L-0.374179 1.03231ZM9.43021 13.211L-0.307519 23.8547L1.1681 25.2047L10.9058 14.561L9.43021 13.211ZM-0.307482 23.8547L-0.737773 24.325L0.737773 25.675L1.16806 25.2048L-0.307482 23.8547ZM0 26H2.89282V24H0V26ZM3.62919 25.6766L3.71072 25.5878L2.23798 24.2347L2.15644 24.3234L3.62919 25.6766ZM3.71147 25.587L12.1912 16.3374L10.717 14.9858L2.23723 24.2355L3.71147 25.587ZM10.6442 16.2481L17.3239 25.4726L18.9438 24.2996L12.264 15.0751L10.6442 16.2481ZM17.3248 25.4738L17.407 25.587L19.0252 24.4116L18.943 24.2984L17.3248 25.4738ZM18.2161 25.9993H26.3896V23.9993H18.2161V25.9993ZM27.1952 24.4069L26.8663 23.9596L25.2551 25.1445L25.584 25.5917L27.1952 24.4069ZM26.8664 23.9598L16.7402 10.1828L15.1287 11.3673L25.2549 25.1443L26.8664 23.9598ZM16.6716 11.4509L26.1195 1.14607L24.6453 -0.205522L15.1974 10.0993L16.6716 11.4509ZM26.1196 1.1459L26.5506 0.67563L25.0761 -0.67563L24.6451 -0.205356L26.1196 1.1459ZM4.32757 3.2787H7.13748V1.2787H4.32757V3.2787ZM6.33188 2.87115L21.4565 23.4374L23.0677 22.2525L7.94309 1.68625L6.33188 2.87115ZM22.2621 21.845H19.335V23.845H22.2621V21.845ZM20.1428 22.2555L5.13537 1.68924L3.51978 2.86816L18.5272 23.4344L20.1428 22.2555Z" fill="black" mask="url(#path-2-inside-1_1202_1208)"/>
</g>
<defs>
<clipPath id="clip0_1202_1208">
<rect width="26.3889" height="25" fill="white"/>
</clipPath>
</defs>
</svg>
