<svg width="28" height="27" viewBox="0 0 28 27" fill="none" xmlns="http://www.w3.org/2000/svg">
<path d="M24.5 0.375C25.2956 0.375 26.0587 0.682291 26.6213 1.22927C27.1839 1.77625 27.5 2.51812 27.5 3.29167V23.7083C27.5 24.4819 27.1839 25.2237 26.6213 25.7707C26.0587 26.3177 25.2956 26.625 24.5 26.625H3.5C2.70435 26.625 1.94129 26.3177 1.37868 25.7707C0.81607 25.2237 0.5 24.4819 0.5 23.7083V3.29167C0.5 2.51812 0.81607 1.77625 1.37868 1.22927C1.94129 0.682291 2.70435 0.375 3.5 0.375H24.5ZM23.75 22.9792V15.25C23.75 13.9891 23.2348 12.7799 22.3178 11.8883C21.4007 10.9967 20.1569 10.4958 18.86 10.4958C17.585 10.4958 16.1 11.2542 15.38 12.3917V10.7729H11.195V22.9792H15.38V15.7896C15.38 14.6667 16.31 13.7479 17.465 13.7479C18.022 13.7479 18.5561 13.963 18.9499 14.3459C19.3438 14.7288 19.565 15.2481 19.565 15.7896V22.9792H23.75ZM6.32 8.48333C6.98835 8.48333 7.62932 8.22521 8.10191 7.76575C8.5745 7.30628 8.84 6.68311 8.84 6.03333C8.84 4.67708 7.715 3.56875 6.32 3.56875C5.64768 3.56875 5.00289 3.82841 4.52748 4.29061C4.05208 4.75281 3.785 5.37969 3.785 6.03333C3.785 7.38958 4.925 8.48333 6.32 8.48333ZM8.405 22.9792V10.7729H4.25V22.9792H8.405Z" fill="#2769B0"/>
</svg>
