<svg width="24" height="26" viewBox="0 0 24 26" fill="none" xmlns="http://www.w3.org/2000/svg">
<g style="mix-blend-mode:multiply">
<path d="M10.7383 10.2771C9.16946 10.0551 7.57022 10.3179 6.15502 11.0306C4.73982 11.7432 3.57633 12.8714 2.82056 14.2641C2.06479 15.6567 1.75287 17.2471 1.92663 18.822C2.10039 20.3969 2.75152 21.8811 3.79271 23.0755C4.8339 24.2698 6.21537 25.1173 7.75188 25.5043C9.28839 25.8912 10.9065 25.7991 12.3892 25.2404C13.8719 24.6816 15.1483 23.6829 16.0473 22.3781C16.9462 21.0733 17.4248 19.5249 17.4188 17.9404V9.44043C19.1227 10.6593 21.1675 11.31 23.2625 11.2998V7.11621C21.7127 7.11621 20.2263 6.50053 19.1304 5.40462C18.0345 4.3087 17.4188 2.82232 17.4188 1.27246H13.1953V17.9803C13.1938 18.7301 12.9551 19.4603 12.5133 20.0662C12.0715 20.6721 11.4494 21.1227 10.7359 21.3534C10.0224 21.5842 9.25423 21.5833 8.5413 21.3508C7.82838 21.1184 7.20729 20.6663 6.76695 20.0594C6.32661 19.4524 6.08961 18.7217 6.08987 17.9718C6.09014 17.222 6.32767 16.4914 6.76844 15.8848C7.20921 15.2782 7.83063 14.8265 8.54372 14.5946C9.25681 14.3627 10.025 14.3623 10.7383 14.5936V10.2771Z" fill="#FF004F"/>
</g>
<g style="mix-blend-mode:multiply">
<path d="M9.54299 9.28106C7.97415 9.05897 6.3749 9.32185 4.95971 10.0345C3.54451 10.7471 2.38102 11.8753 1.62525 13.268C0.869474 14.6606 0.557555 16.251 0.731315 17.8259C0.905074 19.4008 1.55621 20.885 2.5974 22.0794C3.63859 23.2737 5.02006 24.1212 6.55657 24.5082C8.09308 24.8951 9.71117 24.803 11.1939 24.2443C12.6766 23.6855 13.953 22.6868 14.852 21.382C15.7509 20.0773 16.2295 18.5288 16.2235 16.9443V8.44433C17.9274 9.66324 19.9722 10.3139 22.0672 10.3037V6.12012C20.5174 6.12012 19.031 5.50444 17.9351 4.40852C16.8391 3.31261 16.2235 1.82623 16.2235 0.276367H12V16.9842C11.9985 17.734 11.7598 18.4642 11.318 19.0701C10.8762 19.676 10.2541 20.1266 9.54058 20.3573C8.82711 20.5881 8.05891 20.5872 7.34599 20.3547C6.63307 20.1223 6.01197 19.6702 5.57164 19.0633C5.1313 18.4563 4.89429 17.7256 4.89456 16.9757C4.89483 16.2259 5.13235 15.4953 5.57313 14.8887C6.0139 14.2821 6.63532 13.8304 7.3484 13.5985C8.06149 13.3666 8.82969 13.3662 9.54299 13.5975V9.28106Z" fill="#00F2EA"/>
</g>
</svg>
