<svg width="29" height="30" viewBox="0 0 29 30" fill="none" xmlns="http://www.w3.org/2000/svg">
<path d="M20.9349 0.556152H7.9824C3.58533 0.556152 0.00524902 4.13623 0.00524902 8.5333V21.4767C0.00524902 25.8737 3.58533 29.4538 7.9824 29.4538H20.9258C25.3228 29.4538 28.9029 25.8737 28.9029 21.4767V8.5333C28.9029 4.13623 25.332 0.556152 20.9349 0.556152ZM26.3418 21.4858C26.3418 24.4692 23.9183 26.8927 20.9349 26.8927H7.9824C4.999 26.8927 2.57556 24.4692 2.57556 21.4858V8.5333C2.57556 5.5499 4.999 3.12647 7.9824 3.12647H20.9258C23.9092 3.12647 26.3326 5.5499 26.3326 8.5333L26.3418 21.4858Z" fill="url(#paint0_linear_1255_100)"/>
<path d="M14.4541 7.56006C10.3508 7.56006 7.0094 10.9015 7.0094 15.0048C7.0094 19.1081 10.3508 22.4495 14.4541 22.4495C18.5574 22.4495 21.8989 19.1081 21.8989 15.0048C21.8989 10.9015 18.5666 7.56006 14.4541 7.56006ZM14.4541 19.8884C11.7645 19.8884 9.57053 17.6944 9.57053 15.0048C9.57053 12.3151 11.7645 10.1212 14.4541 10.1212C17.1438 10.1212 19.3377 12.3151 19.3377 15.0048C19.3377 17.7036 17.153 19.8884 14.4541 19.8884Z" fill="url(#paint1_linear_1255_100)"/>
<path d="M22.2109 5.38477C21.7152 5.38477 21.2287 5.58672 20.8799 5.93555C20.5311 6.28438 20.3291 6.7709 20.3291 7.2666C20.3291 7.7623 20.5311 8.24883 20.8799 8.59766C21.2287 8.94648 21.7152 9.14844 22.2109 9.14844C22.7066 9.14844 23.1932 8.94648 23.542 8.59766C23.8908 8.24883 24.0928 7.7623 24.0928 7.2666C24.0928 6.7709 23.8908 6.28438 23.542 5.93555C23.1932 5.58672 22.7066 5.38477 22.2109 5.38477Z" fill="url(#paint2_linear_1255_100)"/>
<defs>
<linearGradient id="paint0_linear_1255_100" x1="14.4569" y1="1.75649" x2="14.4569" y2="28.2756" gradientUnits="userSpaceOnUse">
<stop stop-color="#EA8928"/>
<stop offset="1" stop-color="#CF2B8F"/>
</linearGradient>
<linearGradient id="paint1_linear_1255_100" x1="14.457" y1="1.75629" x2="14.457" y2="28.2754" gradientUnits="userSpaceOnUse">
<stop stop-color="#EA8928"/>
<stop offset="1" stop-color="#CF2B8F"/>
</linearGradient>
<linearGradient id="paint2_linear_1255_100" x1="22.2149" y1="1.75659" x2="22.2149" y2="28.2757" gradientUnits="userSpaceOnUse">
<stop stop-color="#EA8928"/>
<stop offset="1" stop-color="#CF2B8F"/>
</linearGradient>
</defs>
</svg>
