<svg width="30" height="31" viewBox="0 0 30 31" fill="none" xmlns="http://www.w3.org/2000/svg">
<path d="M15 0.975098C6.75 0.975098 0 7.52302 0 15.5876C0 22.8793 5.49 28.9313 12.66 30.0251V19.8168H8.85V15.5876H12.66V12.3647C12.66 8.70427 14.895 6.69176 18.33 6.69176C19.965 6.69176 21.675 6.96885 21.675 6.96885V10.5709H19.785C17.925 10.5709 17.34 11.6938 17.34 12.8459V15.5876H21.51L20.835 19.8168H17.34V30.0251C20.8747 29.4824 24.0933 27.729 26.4149 25.0814C28.7365 22.4339 30.008 19.0667 30 15.5876C30 7.52302 23.25 0.975098 15 0.975098Z" fill="#0075FF"/>
</svg>
