<svg width="36" height="26" viewBox="0 0 36 26" fill="none" xmlns="http://www.w3.org/2000/svg">
<path d="M35.2476 3.55225C34.8336 2.15475 33.6132 1.053 32.0652 0.67925C29.2572 3.39001e-07 18 0 18 0C18 0 6.7428 3.39001e-07 3.9348 0.67925C2.3868 1.053 1.1664 2.15475 0.7524 3.55225C-5.36442e-08 6.08725 0 13 0 13C0 13 -5.36442e-08 19.9127 0.7524 22.4477C1.1664 23.8452 2.3868 24.947 3.9348 25.3208C6.7428 26 18 26 18 26C18 26 29.2572 26 32.0652 25.3208C33.615 24.947 34.8336 23.8452 35.2476 22.4477C36 19.9127 36 13 36 13C36 13 36 6.08725 35.2476 3.55225ZM14.4 18.629V7.371L25.2 13L14.4 18.629Z" fill="#DF1E26"/>
</svg>
